<?xml version="1.0" encoding="UTF-8" standalone="no"?>
<svg width="1127px" height="235px" viewBox="0 0 1127 235" version="1.1" xmlns="http://www.w3.org/2000/svg" xmlns:xlink="http://www.w3.org/1999/xlink">
    <!-- Generator: Sketch 3.6.1 (26313) - http://www.bohemiancoding.com/sketch -->
    <title>HACK2I</title>
    <desc>Created with Sketch.</desc>
    <defs></defs>
    <g id="Page-1" stroke="none" stroke-width="1" fill="none" fill-rule="evenodd">
        <path d="M161.048,6.376 L175.448,6.376 L175.448,229 L161.048,229 L161.048,113.8 L15.32,113.8 L15.32,229 L0.92,229 L0.92,6.376 L15.32,6.376 L15.32,99.4 L161.048,99.4 L161.048,6.376 Z M399.16,232.168 C399.16,232.168 374.084492,176.883262 361.546738,149.240894 C358.864492,143.327265 353.500001,131.500007 353.500001,131.500007 L266.500001,131.500007 L220.6,232.168 L207.64,226.12 L309.88,0.04 L412.408,226.12 L399.16,232.168 Z M266.104,131.656 L353.656,131.656 L309.88,34.888 L266.104,131.656 Z M539.64,232.456 C524.471924,232.456 509.496074,229.48003 494.712,223.528 C487.991966,220.455985 481.560031,216.90402 475.416,212.872 C469.271969,208.83998 463.608026,204.136027 458.424,198.76 C447.479945,187.815945 439.224028,175.624067 433.656,162.184 C427.70397,148.359931 424.728,133.48008 424.728,117.544 C424.728,101.60792 427.70397,86.7280691 433.656,72.904 C439.416029,58.8879299 447.671946,46.6960518 458.424,36.328 C468.792052,25.7679472 480.887931,17.5120298 494.712,11.56 C508.920071,5.60797024 523.895921,2.632 539.64,2.632 C555.57608,2.632 570.455931,5.60797024 584.28,11.56 C597.720067,17.1280278 609.911945,25.3839453 620.856,36.328 L610.488,46.408 C601.079953,36.807952 590.280061,29.512025 578.088,24.52 C565.895939,19.527975 553.080067,17.032 539.64,17.032 C525.815931,17.032 512.760061,19.6719736 500.472,24.952 C488.183939,30.2320264 477.528045,37.3839549 468.504,46.408 C459.479955,55.4320451 452.328026,66.0879386 447.048,78.376 C441.767974,90.6640614 439.128,103.719931 439.128,117.544 C439.128,131.368069 441.767974,144.375939 447.048,156.568 C452.328026,168.760061 459.479955,179.415954 468.504,188.536 C477.528045,197.656046 488.183939,204.855974 500.472,210.136 C512.760061,215.416026 525.815931,218.056 539.64,218.056 C553.080067,218.056 565.895939,215.560025 578.088,210.568 C590.280061,205.575975 601.079953,198.280048 610.488,188.68 L620.856,198.76 C609.911945,209.704055 597.720067,217.959972 584.28,223.528 C569.687927,229.48003 554.808076,232.456 539.64,232.456 L539.64,232.456 Z M854.936,234.184 L729.08,112.648 L692.216,142.888 L692.216,229 L677.816,229 L677.816,6.376 L692.216,6.376 L692.216,124.168 L841.4,1.192 L850.328,12.136 L740.312,103.144 L865.016,223.816 L854.936,234.184 Z M1049.56,229.288 L908.152,229.288 L920.824,216.904 C926.392028,211.335972 932.727964,205.096035 939.832,198.184 C946.936036,191.271965 954.135964,184.216036 961.432,177.016 C968.728036,169.815964 975.927964,162.760035 983.032,155.848 C990.136036,148.935965 996.519972,142.696028 1002.184,137.128 C1007.84803,131.559972 1012.50398,126.952018 1016.152,123.304 C1019.80002,119.655982 1022.008,117.448004 1022.776,116.68 C1022.968,116.295998 1023.448,115.720004 1024.216,114.952 C1025.56001,113.415992 1027.33599,111.352013 1029.544,108.76 C1031.75201,106.167987 1033.86399,103.096018 1035.88,99.544 C1037.89601,95.9919822 1039.62399,92.0080221 1041.064,87.592 C1042.50401,83.1759779 1043.224,78.3760259 1043.224,73.192 C1043.224,65.5119616 1041.73601,58.2640341 1038.76,51.448 C1035.78399,44.6319659 1031.80002,38.728025 1026.808,33.736 C1021.81598,28.743975 1015.86403,24.7600149 1008.952,21.784 C1002.03997,18.8079851 994.744038,17.32 987.064,17.32 C980.727968,17.32 974.632029,18.3279899 968.776,20.344 C962.919971,22.3600101 957.640024,25.1919818 952.936,28.84 C948.231976,32.4880182 944.152017,36.8559746 940.696,41.944 C937.239983,47.0320254 934.648009,52.6479693 932.92,58.792 C931.767994,63.400023 931.192,68.199975 931.192,73.192 L916.792,73.192 C916.792,67.6239722 917.559992,61.5760326 919.096,55.048 C921.01601,47.3679616 924.183978,40.3120322 928.6,33.88 C933.016022,27.4479678 938.24797,21.928023 944.296,17.32 C950.34403,12.711977 957.015964,9.16001248 964.312,6.664 C971.608036,4.16798752 979.191961,2.92 987.064,2.92 C996.664048,2.92 1005.68796,4.64798272 1014.136,8.104 C1022.58404,11.5600173 1030.16797,16.6479664 1036.888,23.368 C1043.60803,30.0880336 1048.74398,37.7199573 1052.296,46.264 C1055.84802,54.8080427 1057.624,63.783953 1057.624,73.192 C1057.624,79.9120336 1056.71201,86.0559722 1054.888,91.624 C1053.06399,97.1920278 1050.95201,102.135978 1048.552,106.456 C1046.15199,110.776022 1043.65601,114.471985 1041.064,117.544 C1038.47199,120.616015 1036.40801,123.015991 1034.872,124.744 L1033.432,126.184 L1033.144,126.472 L1033.144,126.76 C1032.952,126.952001 1031.27202,128.583985 1028.104,131.656 C1024.93598,134.728015 1020.80803,138.807975 1015.72,143.896 C1010.63197,148.984025 1004.87203,154.647969 998.44,160.888 C992.007968,167.128031 985.480033,173.511967 978.856,180.04 C972.231967,186.568033 965.800031,192.85597 959.56,198.904 C953.319969,204.95203 947.896023,210.279977 943.288,214.888 L1049.56,214.888 L1049.56,229.288 Z M1126.104,229 L1111.704,229 L1111.704,6.376 L1126.104,6.376 L1126.104,229 L1126.104,229 Z" id="HACK2I" fill="#787B83"></path>
    </g>
</svg>