<?xml version="1.0" encoding="UTF-8" standalone="no"?>
<svg width="485px" height="390px" viewBox="0 0 485 390" version="1.1" xmlns="http://www.w3.org/2000/svg" xmlns:xlink="http://www.w3.org/1999/xlink">
    <!-- Generator: Sketch 3.6.1 (26313) - http://www.bohemiancoding.com/sketch -->
    <title>illustration</title>
    <desc>Created with Sketch.</desc>
    <defs></defs>
    <g id="Page-1" stroke="none" stroke-width="1" fill="none" fill-rule="evenodd">
        <g id="Group" transform="translate(2.000000, 2.000000)">
            <path d="M362.8,374.1 L126,374.1 C123.6,374.1 121.7,372.1 121.7,369.8 L121.7,218.3 C121.7,215.9 123.7,214 126,214 L362.8,214 C365.2,214 367.1,216 367.1,218.3 L367.1,369.8 C367.1,372.2 365.2,374.1 362.8,374.1 L362.8,374.1 Z" id="Shape" stroke="#42B872" stroke-width="3"></path>
            <path d="M348.3,354.8 L140.5,354.8 C138.5,354.8 136.9,353.1 136.9,351.2 L136.9,230.2 C136.9,228.2 138.6,226.6 140.5,226.6 L348.3,226.6 C350.3,226.6 351.9,228.3 351.9,230.2 L351.9,351.2 C351.9,353.1 350.2,354.8 348.3,354.8 L348.3,354.8 Z" id="Shape" stroke="#42B872" stroke-width="3"></path>
            <path d="M384.4,386 L104.4,386 C103.6,386 102.9,385.3 102.9,384.5 L102.9,370.7 C102.9,369.9 103.6,369.2 104.4,369.2 L384.4,369.2 C385.2,369.2 385.9,369.9 385.9,370.7 L385.9,384.5 C385.9,385.3 385.2,386 384.4,386 L384.4,386 Z" id="Shape" stroke="#42B872" stroke-width="3" fill="#FFFFFF"></path>
            <path d="M136.1,240.5 L352.1,240.5" id="Shape" stroke="#42B872" stroke-width="3"></path>
            <circle id="Oval" fill="#42B872" cx="146" cy="233" r="2.1"></circle>
            <circle id="Oval" fill="#42B872" cx="154.2" cy="233" r="2.1"></circle>
            <circle id="Oval" fill="#42B872" cx="162.4" cy="233" r="2.1"></circle>
            <path d="M168.1,254.4 L253.1,254.4" id="Shape" stroke="#42B872" stroke-width="3"></path>
            <path d="M168.1,332.5 L253.1,332.5" id="Shape" stroke="#42B872" stroke-width="3"></path>
            <path d="M168.1,342.2 L211.3,342.2" id="Shape" stroke="#42B872" stroke-width="3"></path>
            <path d="M169.1,264.2 L276.4,264.2" id="Shape" stroke="#42B872" stroke-width="3"></path>
            <path d="M175.1,273.9 L223.9,273.9" id="Shape" stroke="#42B872" stroke-width="3"></path>
            <path d="M175.1,283.7 L282.4,283.7" id="Shape" stroke="#42B872" stroke-width="3"></path>
            <path d="M175.1,303.2 L246.1,303.2" id="Shape" stroke="#42B872" stroke-width="3"></path>
            <path d="M182,293.5 L260.1,293.5" id="Shape" stroke="#42B872" stroke-width="3"></path>
            <path d="M175.1,313 L274,313" id="Shape" stroke="#42B872" stroke-width="3"></path>
            <path d="M182,322.7 L282.4,322.7" id="Shape" stroke="#42B872" stroke-width="3"></path>
            <ellipse id="Oval" stroke="#42B872" stroke-width="3" cx="481.45" cy="192" rx="-0.05" ry="1.1"></ellipse>
            <g id="Group-2" transform="translate(405.000000, 101.000000)" stroke="#42B872" stroke-width="3">
                <path d="M52.1,12.2 L6,12.2 C5.6,12.2 5.3,11.9 5.3,11.6 L11.6,0.6 C11.6,0.3 11.9,0 12.3,0 L45.7,0 C46.1,0 46.4,0.3 46.4,0.6 L52.8,11.6 C52.8,11.9 52.5,12.2 52.1,12.2 L52.1,12.2 Z" id="Shape"></path>
                <path d="M57,21.2 L1.3,21.2 C0.9,21.2 0.6,20.9 0.6,20.5 L0.6,12.8 C0.6,12.4 0.9,12.1 1.3,12.1 L57,12.1 C57.4,12.1 57.7,12.4 57.7,12.8 L57.7,20.5 C57.7,21 57.4,21.2 57,21.2 L57,21.2 Z" id="Shape"></path>
                <path d="M52.1,21.2 C52.5,21.2 52.8,21.5 52.8,21.8 L46.5,82.7 C46.5,83 46.2,83.3 45.8,83.3 L12.4,83.3 C12,83.3 11.7,83 11.7,82.7 L5.4,21.9 C5.3,21.5 5.7,21.2 6,21.2 L52.1,21.2 Z" id="Shape"></path>
                <path d="M8.2,61.1 C7.2,61.1 6.4,60.3 6.4,59.3 L4.4,40.8 C4.4,39.8 5.2,39 6.2,39 L51.8,39 C52.8,39 53.6,39.8 53.6,40.8 L51.6,59.3 C51.8,60.3 51,61.1 50,61.1 L8.2,61.1 Z" id="Shape" fill="#FFFFFF"></path>
            </g>
            <path d="M27.4,170.8 L52.9,170.8 C52.9,170.8 66.1,171.5 66.1,162 C66.1,152 52.9,152.7 52.9,152.7 L12,152.7" id="Shape" stroke="#42B872" stroke-width="3"></path>
            <path d="M21.8,207.1 L47,207.1 C47,207.1 60.2,207.8 60.2,198.3 C60.2,188.3 47,189 47,189 L28.8,189" id="Shape" stroke="#42B872" stroke-width="3"></path>
            <path d="M21.8,134.6 L28.6,134.6 C28.6,134.6 41.3,134.9 41.3,125.5 L41.3,91.4" id="Shape" stroke="#42B872" stroke-width="3"></path>
            <path d="M30.1,134.6 L14,134.6 C14,134.6 0.8,133.9 0.8,143.4 C0.8,153.4 14,152.7 14,152.7 L55.2,152.7" id="Shape" stroke="#42B872" stroke-width="3"></path>
            <path d="M31.5,170.8 L25.5,170.8 C25.5,170.8 12.3,170.1 12.3,179.6 C12.3,189.6 25.5,188.9 25.5,188.9 L41.2,188.9" id="Shape" stroke="#42B872" stroke-width="3"></path>
            <path d="M31.5,207.1 L24,207.1 C24,207.1 10.6,207 10.6,216.3 L10.6,294.9" id="Shape" stroke="#42B872" stroke-width="3"></path>
            <circle id="Oval" fill="#42B872" cx="11.1" cy="303.2" r="5.2"></circle>
            <path d="M9.1,293.3 L13.1,293.3 C13.7,293.3 14.1,293.7 14.1,294.3 L14.1,303.4 C14.1,304 13.7,304.4 13.1,304.4 L9.1,304.4 C8.5,304.4 8.1,304 8.1,303.4 L8.1,294.3 C8.1,293.7 8.5,293.3 9.1,293.3 L9.1,293.3 Z" id="Shape" fill="#42B872"></path>
            <circle id="Oval" fill="#42B872" cx="32.8" cy="281.6" r="5.2"></circle>
            <path d="M30.8,271.6 L34.8,271.6 C35.4,271.6 35.8,272 35.8,272.6 L35.8,281.7 C35.8,282.3 35.4,282.7 34.8,282.7 L30.8,282.7 C30.2,282.7 29.8,282.3 29.8,281.7 L29.8,272.6 C29.9,272 30.3,271.6 30.8,271.6 L30.8,271.6 Z" id="Shape" fill="#42B872"></path>
            <path d="M2.7,100 C1.3,100 0.3,98.9 0.3,97.6 L0.3,2.6 C0.3,1.2 1.4,0.2 2.7,0.2 L58.9,0.2 C60.3,0.2 61.3,1.3 61.3,2.6 L61.3,97.6 C61.2,98.9 60.2,100 58.9,100 L2.7,100 Z" id="Shape" stroke="#42B872" stroke-width="3" fill="#FFFFFF"></path>
            <path d="M52.7,79 L8.8,79 C7.8,79 7,78.2 7,77.2 L7,9.6 C7,8.6 7.8,7.8 8.8,7.8 L52.7,7.8 C53.7,7.8 54.5,8.6 54.5,9.6 L54.5,77.3 C54.5,78.1 53.7,79 52.7,79 L52.7,79 Z" id="Shape" stroke="#42B872" stroke-width="3" fill="#FFFFFF"></path>
            <path d="M30.1,92.6 C31.7016258,92.6 33,91.3016258 33,89.7 C33,88.0983742 31.7016258,86.8 30.1,86.8 C28.4983742,86.8 27.2,88.0983742 27.2,89.7 C27.2,91.3016258 28.4983742,92.6 30.1,92.6 Z" id="Oval" stroke="#42B872" stroke-width="3" fill="#FFFFFF"></path>
            <circle id="Oval" fill="#42B872" cx="24.9" cy="51.4" r="3.1"></circle>
            <circle id="Oval" fill="#42B872" cx="36.4" cy="47.1" r="3.1"></circle>
            <path d="M38.5,46.8 L38.5,31.7 L27.4,36.1 L27.4,51" id="Shape" stroke="#42B872" stroke-width="3"></path>
            <path d="M12,229.3 L20,229.3 C20,229.3 33,228.6 33,237.9 L33,273.9" id="Shape" stroke="#42B872" stroke-width="3"></path>
        </g>
        <text id="MAIS,-HACK2I-!" font-family="TYPOGRAPHPRO-Light, TYPOGRAPH PRO" font-size="20" font-weight="300" letter-spacing="0.555555522" fill="#42B872">
            <tspan x="108" y="147">MAIS,</tspan>
            <tspan x="172.257778" y="147" font-family="TYPOGRAPHPRO-SemiBold, TYPOGRAPH PRO" font-weight="500"> HACK2I !</tspan>
        </text>
        <text id="DE-QUOI-AI-JE-BESOIN" font-family="TYPOGRAPHPRO-Light, TYPOGRAPH PRO" font-size="20" font-weight="300" letter-spacing="0.555555522" fill="#42B872">
            <tspan x="108" y="167">DE QUOI AI-JE BESOIN?</tspan>
        </text>
    </g>
</svg>